<svg xmlns="http://www.w3.org/2000/svg" width="30" height="30" fill="none">
    <g fill="#5B5959" clip-path="url(#a)">
        <path
            d="M29.708 15.345c0-1.02-.083-2.044-.26-3.047H15.3v5.776h8.102a6.943 6.943 0 0 1-2.998 4.558v3.748h4.834c2.838-2.613 4.47-6.47 4.47-11.034Z" />
        <path
            d="M15.3 30.001c4.046 0 7.457-1.328 9.943-3.621l-4.834-3.748c-1.345.915-3.08 1.433-5.103 1.433-3.914 0-7.232-2.64-8.422-6.19H1.896v3.864A15.002 15.002 0 0 0 15.3 30.001Z" />
        <path
            d="M6.878 17.875a8.985 8.985 0 0 1 0-5.743V8.27H1.896a15.013 15.013 0 0 0 0 13.47l4.982-3.864Z" />
        <path
            d="M15.3 5.937a8.151 8.151 0 0 1 5.754 2.249l4.283-4.283A14.416 14.416 0 0 0 15.3.001 14.997 14.997 0 0 0 1.896 8.269l4.982 3.863c1.185-3.555 4.509-6.195 8.422-6.195Z" />
    </g>
    <defs>
        <clipPath id="a">
            <path fill="#fff" d="M0 0h30v30H0z" />
        </clipPath>
    </defs>
</svg>