<svg xmlns="http://www.w3.org/2000/svg" width="16" height="16" fill="none">
    <g clip-path="url(#a)">
        <path fill="#fff" fill-opacity=".5"
            d="M6.267 10.667H2A1.333 1.333 0 0 1 .667 9.333V7.931c0-.175.033-.347.1-.508l2.064-5.01A.667.667 0 0 1 3.447 2h11.22a.667.667 0 0 1 .666.667v6.666a.666.666 0 0 1-.666.667h-2.322a.668.668 0 0 0-.544.282l-3.636 5.15a.333.333 0 0 1-.421.107l-1.21-.606a1.667 1.667 0 0 1-.87-1.902l.603-2.364Zm5.066-1.726V3.333h-7.44L2 7.931v1.402h4.267a1.333 1.333 0 0 1 1.292 1.662l-.602 2.366a.333.333 0 0 0 .174.38l.44.22 3.14-4.448c.167-.236.38-.429.622-.572Zm1.334-.274H14V3.333h-1.333v5.334Z" />
    </g>
    <defs>
        <clipPath id="a">
            <path fill="#fff" d="M0 0h16v16H0z" />
        </clipPath>
    </defs>
</svg>