<svg xmlns="http://www.w3.org/2000/svg" width="16" height="16" fill="none">
    <g clip-path="url(#a)">
        <path fill="#fff" fill-opacity=".5"
            d="M9.733 5.333H14a1.333 1.333 0 0 1 1.333 1.334v1.402c0 .175-.033.347-.1.508l-2.064 5.01a.667.667 0 0 1-.616.413H1.333a.666.666 0 0 1-.666-.667V6.667A.667.667 0 0 1 1.333 6h2.322a.667.667 0 0 0 .544-.282L7.835.568A.333.333 0 0 1 8.256.46l1.21.606a1.667 1.667 0 0 1 .87 1.902l-.603 2.364ZM4.667 7.06v5.608h7.44L14 8.069V6.667H9.733a1.333 1.333 0 0 1-1.292-1.662l.602-2.366a.333.333 0 0 0-.174-.38l-.44-.22-3.14 4.448c-.167.236-.38.429-.622.572Zm-1.334.274H2v5.334h1.333V7.333Z" />
    </g>
    <defs>
        <clipPath id="a">
            <path fill="#fff" d="M16 16H0V0h16z" />
        </clipPath>
    </defs>
</svg>