<svg xmlns="http://www.w3.org/2000/svg" width="36" height="36" fill="none">
    <path fill="#fff"
        d="M27.734 13.53a5.265 5.265 0 1 0 0-10.53 5.265 5.265 0 0 0 0 10.53ZM27.734 33.03a5.265 5.265 0 1 0 0-10.53 5.265 5.265 0 0 0 0 10.53ZM12.959 16.77a1.14 1.14 0 0 1-1.005-.63 1.125 1.125 0 0 1 .51-1.5l5.82-2.91a1.113 1.113 0 0 1 1.5.495 1.125 1.125 0 0 1-.495 1.5l-5.82 2.91a1.215 1.215 0 0 1-.51.135ZM18.794 24.405a1.201 1.201 0 0 1-.495-.12l-5.82-2.91a1.14 1.14 0 0 1-.51-1.5 1.125 1.125 0 0 1 1.5-.495l5.82 2.91a1.11 1.11 0 0 1 .495 1.5 1.126 1.126 0 0 1-.99.615Z" />
    <path fill="#fff"
        d="M13.529 18.015a5.145 5.145 0 0 1-.555 2.355 5.265 5.265 0 1 1 0-4.71c.37.73.56 1.537.555 2.355Z" />
</svg>