<svg xmlns="http://www.w3.org/2000/svg" width="70" height="70" viewBox="0 0 70 70">
    <path className="star__outside"
        d="M30.425 5.021a6.189 6.189 0 0 1 9.15 0 6.189 6.189 0 0 0 6.453 1.73 6.189 6.189 0 0 1 7.923 4.574 6.189 6.189 0 0 0 4.724 4.724 6.189 6.189 0 0 1 4.575 7.924 6.189 6.189 0 0 0 1.729 6.452 6.189 6.189 0 0 1 0 9.15 6.189 6.189 0 0 0-1.73 6.453 6.189 6.189 0 0 1-4.574 7.923 6.189 6.189 0 0 0-4.724 4.724 6.189 6.189 0 0 1-7.923 4.575 6.189 6.189 0 0 0-6.453 1.729 6.189 6.189 0 0 1-9.15 0 6.189 6.189 0 0 0-6.453-1.73 6.189 6.189 0 0 1-7.923-4.574 6.189 6.189 0 0 0-4.724-4.724 6.189 6.189 0 0 1-4.575-7.923 6.189 6.189 0 0 0-1.729-6.453 6.189 6.189 0 0 1 0-9.15 6.189 6.189 0 0 0 1.73-6.453 6.189 6.189 0 0 1 4.574-7.923 6.189 6.189 0 0 0 4.724-4.724 6.189 6.189 0 0 1 7.924-4.575 6.189 6.189 0 0 0 6.452-1.729Z" />
    <path className="star__inside" fill-rule="evenodd"
        d="M44.804 23.13c-.184.107-3.256 3.124-6.827 6.706l-6.491 6.513-3.062-3.055c-1.683-1.68-3.237-3.11-3.453-3.175-.885-.272-1.407.03-3.215 1.855L20 33.747V35.426l5.279 5.314c5.6 5.637 5.772 5.773 6.839 5.328.255-.107 4.383-4.138 9.173-8.96L50 28.344v-1.684l-1.773-1.784c-1.541-1.552-1.858-1.794-2.43-1.86-.361-.043-.808.01-.992.116Z"
        clip-rule="evenodd" />
</svg>