<svg xmlns="http://www.w3.org/2000/svg" width="30" height="30" fill="none">
    <g clip-path="url(#a)">
        <path fill="#5B5959"
            d="M15 30c8.284 0 15-6.716 15-15 0-8.284-6.716-15-15-15C6.716 0 0 6.716 0 15c0 8.284 6.716 15 15 15Z" />
        <path fill="#fff" fill-rule="evenodd"
            d="M6.79 14.842c4.373-1.905 7.289-3.162 8.748-3.768 4.165-1.733 5.03-2.034 5.595-2.044.124-.002.402.029.581.175.152.123.194.289.214.406.02.116.045.382.025.59-.226 2.372-1.203 8.128-1.7 10.784-.21 1.125-.624 1.501-1.025 1.538-.87.08-1.532-.575-2.376-1.128-1.32-.866-2.066-1.404-3.348-2.249-1.48-.976-.52-1.512.324-2.389.22-.23 4.059-3.72 4.133-4.037.01-.04.018-.187-.07-.265-.088-.078-.217-.052-.31-.03-.133.03-2.242 1.424-6.328 4.182-.598.41-1.14.611-1.626.6-.536-.011-1.566-.302-2.332-.551-.94-.306-1.686-.467-1.621-.986.034-.27.406-.546 1.116-.828Z"
            clip-rule="evenodd" />
    </g>
    <defs>
        <clipPath id="a">
            <path fill="#fff" d="M0 0h30v30H0z" />
        </clipPath>
    </defs>
</svg>