<svg xmlns="http://www.w3.org/2000/svg" width="30" height="30" fill="none">
    <path fill="#5B5959"
        d="M9.434 27.188c11.321 0 17.513-9.379 17.513-17.512 0-.267 0-.532-.018-.796A12.524 12.524 0 0 0 30 5.694a12.27 12.27 0 0 1-3.535.968 6.175 6.175 0 0 0 2.706-3.404 12.331 12.331 0 0 1-3.909 1.494 6.16 6.16 0 0 0-10.489 5.614A17.476 17.476 0 0 1 2.088 3.935a6.16 6.16 0 0 0 1.906 8.216 6.101 6.101 0 0 1-2.794-.77v.078a6.157 6.157 0 0 0 4.938 6.033 6.145 6.145 0 0 1-2.78.106 6.163 6.163 0 0 0 5.751 4.274A12.349 12.349 0 0 1 0 24.424a17.428 17.428 0 0 0 9.434 2.76" />
</svg>