<svg xmlns="http://www.w3.org/2000/svg" width="16" height="13" fill="none">
    <path fill-rule="evenodd"
        d="M8 1.182c-1.812 0-4.279.158-5.846.274a.98.98 0 0 0-.923.967v.578L7.5 6.346c.31.165.687.165.997 0l6.271-3.345v-.578a.98.98 0 0 0-.923-.967C12.279 1.34 9.812 1.182 8 1.182Zm6.77 3.17L9.095 7.38a2.338 2.338 0 0 1-2.192 0L1.231 4.353v6.224c0 .51.403.929.923.967 1.567.117 4.034.274 5.846.274 1.812 0 4.279-.157 5.846-.274a.98.98 0 0 0 .923-.967V4.353ZM2.06.278C3.627.161 6.137 0 8 0c1.863 0 4.373.161 5.94.277C15.113.364 16 1.305 16 2.423v8.154c0 1.118-.888 2.06-2.06 2.146C12.373 12.839 9.864 13 8 13c-1.863 0-4.373-.161-5.94-.277C.888 12.636 0 11.695 0 10.577V2.423C0 1.305.888.363 2.06.277Z"
        clip-rule="evenodd" />
</svg>